<?xml version="1.0" encoding="utf-8"?>
<!-- Generator: Adobe Illustrator 17.0.2, SVG Export Plug-In . SVG Version: 6.00 Build 0)  -->
<!DOCTYPE svg PUBLIC "-//W3C//DTD SVG 1.1//EN" "http://www.w3.org/Graphics/SVG/1.1/DTD/svg11.dtd">
<svg version="1.1" id="Capa_2" xmlns="http://www.w3.org/2000/svg" xmlns:xlink="http://www.w3.org/1999/xlink" x="0px" y="0px"
	 width="184px" height="32px" viewBox="0 0 184 32" enable-background="new 0 0 184 32" xml:space="preserve">
<g>
	<path id="asterisco_1_" fill-rule="evenodd" clip-rule="evenodd" fill="#FFFFFF" d="M9.521,17.714
		c-3.279-1.14-6.468-2.253-9.712-3.382c1.137-2.721,2.247-5.375,3.395-8.124c3.104,1.441,6.179,2.867,9.386,4.356
		c-0.356-3.436-0.702-6.764-1.053-10.153c3.414,0,6.764,0,10.178,0c-0.432,3.445-0.861,6.862-1.304,10.399
		c3.132-1.551,6.176-3.057,9.302-4.602c1.131,2.7,2.249,5.369,3.401,8.122c-3.327,1.103-6.587,2.184-9.958,3.303
		c2.503,2.667,4.923,5.244,7.404,7.889c-2.525,1.937-5.005,3.843-7.543,5.791c-2.158-3.02-4.299-6.011-6.515-9.111
		c-2.298,3.15-4.551,6.241-6.846,9.386c-2.453-2.062-4.848-4.074-7.295-6.133C4.755,22.867,7.111,20.32,9.521,17.714z"/>
	<g>
		<path fill="#FFFFFF" d="M46.8,11.827L45.76,9.61h-6.513v4.504h1.49v8.281h-1.524v4.538h9.805v-4.538h-1.733v-3.57
			c0-3.048,1.768-3.845,4.885-3.845V8.744C48.601,8.744,47.701,10.164,46.8,11.827z"/>
		<path fill="#FFFFFF" d="M63.186,22.845c-2.911,0-3.362-1.906-3.569-2.841H70.53c0.727-1.974,0.347-4.642-0.069-5.854
			c-1.005-2.911-4.157-5.024-8.28-5.024c-5.232,0-9.32,3.361-9.32,9.042c0,6.652,4.851,9.39,9.147,9.39
			c3.603,0,6.375-0.797,8.939-3.015l-2.91-3.361C66.166,22.74,64.363,22.845,63.186,22.845z M62.389,13.803
			c2.217,0,2.528,1.455,2.563,2.772H59.72C59.79,15.707,60.275,13.803,62.389,13.803z"/>
		<path fill="#FFFFFF" d="M91.246,0.949H82.62v4.503h1.593v5.129c-0.658-0.416-1.904-1.317-4.364-1.317
			c-4.261,0-8.038,3.431-8.038,8.834c0,4.817,3.153,9.147,8.038,9.147c2.39,0,3.915-1.177,4.364-1.593l0.589,1.282h8.108v-4.504
			h-1.664V0.949z M81.753,22.36c-1.524,0-2.494-2.184-2.494-4.263c0-2.633,1.005-4.33,2.46-4.33c1.317,0,2.494,1.801,2.494,4.158
			C84.352,20.662,83.105,22.36,81.753,22.36z"/>
		<path fill="#FFFFFF" d="M101.88,11.827l-1.04-2.217h-6.513v4.504h1.491v8.281h-1.525v4.538h9.805v-4.538h-1.733v-3.57
			c0-3.048,1.768-3.845,4.885-3.845V8.744C103.681,8.744,102.781,10.164,101.88,11.827z"/>
		<path fill="#FFFFFF" d="M125.956,15.742c0-5.578-5.23-7.136-9.388-7.136c-3.188,0-6.167,1.628-7.554,2.458l1.456,4.02
			c1.315-0.727,3.118-1.595,5.162-1.595c1.871,0,3.291,0.381,3.291,1.941v1.212c-0.173-0.208-1.385-1.212-3.429-1.212
			c-3.915,0-7.208,2.46-7.208,6.375c0,4.018,3.534,5.786,6.826,5.786c1.247,0,3.394-0.451,4.677-2.219l0.831,1.56h7.414v-4.434
			h-2.079V15.742z M118.924,21.944c-0.311,0.519-1.178,1.144-2.217,1.144c-1.039,0-1.836-0.659-1.836-1.63
			c0-1.074,0.624-1.836,2.009-1.836c1.455,0,1.941,0.832,2.044,1.005V21.944z"/>
		<path fill="#FFFFFF" d="M148.336,0.949h-8.627v4.503h1.593v5.129c-0.658-0.416-1.904-1.317-4.364-1.317
			c-4.261,0-8.038,3.431-8.038,8.834c0,4.817,3.153,9.147,8.038,9.147c2.39,0,3.915-1.177,4.364-1.593l0.589,1.282h8.108v-4.504
			h-1.663V0.949z M138.843,22.36c-1.525,0-2.495-2.184-2.495-4.263c0-2.633,1.005-4.33,2.46-4.33c1.317,0,2.494,1.801,2.494,4.158
			C141.442,20.662,140.195,22.36,138.843,22.36z"/>
		<path fill="#FFFFFF" d="M156.095,8.052c2.459,0,3.81-1.595,3.81-3.501c0-1.593-1.42-3.534-3.81-3.534
			c-2.425,0-3.742,1.941-3.742,3.534C152.353,6.216,153.911,8.052,156.095,8.052z"/>
		<polygon fill="#FFFFFF" points="159.421,9.61 151.383,9.61 151.383,14.114 152.837,14.114 152.837,22.395 151.383,22.395 
			151.383,26.933 161.084,26.933 161.084,22.395 159.421,22.395 		"/>
		<polygon fill="#FFFFFF" points="182.181,22.636 177.815,17.648 181.489,13.941 183.776,13.941 183.776,9.61 174.939,9.61 
			174.939,13.941 177.262,13.941 174.662,16.574 172.237,13.941 173.865,13.941 173.865,9.61 162.641,9.61 162.641,13.941 
			164.199,13.941 168.495,18.652 164.961,22.636 162.641,22.636 162.641,26.933 171.51,26.933 171.51,22.636 169.257,22.636 
			171.753,19.83 174.384,22.636 172.756,22.636 172.756,26.933 183.809,26.933 183.809,22.636 		"/>
	</g>
</g>
</svg>